<svg width="200" height="200" viewBox="0 0 200 200" fill="none" xmlns="http://www.w3.org/2000/svg">
<g filter="url(#filter0_i_9_62)">
<circle cx="100" cy="100" r="100" fill="#393738"/>
</g>
<g filter="url(#filter1_i_9_62)">
<path d="M95.7048 157.293L96.396 157H107.289L110.746 159.634L108.129 157.937L107.136 157.293H105.952H95.7048Z" stroke="#039A2B" stroke-width="8"/>
<path d="M96.8696 139.809H96.1088L95.4012 140.088L83.1697 144.915H80V140.349L97.6683 133H108.682L120 139.923V146.059L110.145 140.348L109.214 139.809H108.139H96.8696Z" stroke="#039A2B" stroke-width="8"/>
<path d="M73.5 56.5H72C70.8954 56.5 70 57.3954 70 58.5V62.5C70 63.3284 70.6716 64 71.5 64H72.5C72.7761 64 73 63.7761 73 63.5C73 63.2239 73.2239 63 73.5 63H75.1213C75.6839 63 76.2235 62.7765 76.6213 62.3787L77.25 61.75C78.0504 60.9496 79.1359 60.5 80.2678 60.5H122.232C123.364 60.5 124.45 60.9496 125.25 61.75L125.775 62.2751C126.239 62.7393 126.869 63 127.525 63H129.5C129.776 63 130 63.2239 130 63.5C130 63.7761 130.224 64 130.5 64H131C131.552 64 132 63.5523 132 63V58.25C132 57.2835 131.216 56.5 130.25 56.5H129C128.724 56.5 128.5 56.2761 128.5 56C128.5 55.7239 128.276 55.5 128 55.5H127C126.724 55.5 126.5 55.2761 126.5 55C126.5 54.7239 126.276 54.5 126 54.5H124.75C124.336 54.5 124 54.1642 124 53.75C124 53.3358 123.664 53 123.25 53H79.25C78.8358 53 78.5 53.3358 78.5 53.75C78.5 54.1642 78.1642 54.5 77.75 54.5H76.5C76.2239 54.5 76 54.7239 76 55C76 55.2761 75.7761 55.5 75.5 55.5H74.5C74.2239 55.5 74 55.7239 74 56C74 56.2761 73.7761 56.5 73.5 56.5Z" stroke="#039A2B"/>
<path d="M70 66V57" stroke="#039A2B" stroke-width="2"/>
<path d="M131 66V57" stroke="#039A2B" stroke-width="2"/>
<path d="M77 64V55" stroke="#039A2B"/>
<path d="M124 64V55" stroke="#039A2B"/>
<path d="M85.5 69H117V75V83.9695L109.981 80.6663L108.565 80H107H88.5H87.1L85.8077 80.5385L83.5 81.5V75V72.1005L81.8995 70.5H85.5V69Z" stroke="#039A2B" stroke-width="14"/>
<path d="M100 37.5V43.5" stroke="#039A2B" stroke-width="2"/>
<mask id="path-11-inside-1_9_62" fill="white">
<path d="M102 50V44C102 42.8954 101.105 42 100 42C98.8954 42 98 42.8954 98 44V50C98 51.1046 98.8954 52 100 52C101.105 52 102 51.1046 102 50Z"/>
</mask>
<path d="M94 44V50H110V44H94ZM106 50V44H90V50H106ZM100 44C103.314 44 106 46.6863 106 50H90C90 55.5228 94.4772 60 100 60V44ZM94 50C94 46.6863 96.6863 44 100 44V60C105.523 60 110 55.5228 110 50H94ZM100 50C96.6863 50 94 47.3137 94 44H110C110 38.4772 105.523 34 100 34V50ZM100 34C94.4772 34 90 38.4772 90 44H106C106 47.3137 103.314 50 100 50V34Z" fill="#039A2B" mask="url(#path-11-inside-1_9_62)"/>
<mask id="path-13-inside-2_9_62" fill="white">
<path d="M97.9821 171L76.5 180H124L110.991 171H97.9821Z"/>
</mask>
<path d="M76.5 180L72.6359 170.777L76.5 190V180ZM97.9821 171V161H95.972L94.118 161.777L97.9821 171ZM110.991 171L116.681 162.776L114.113 161H110.991V171ZM124 180V190H156.031L129.689 171.776L124 180ZM80.3641 189.223L101.846 180.223L94.118 161.777L72.6359 170.777L80.3641 189.223ZM97.9821 181H110.991V161H97.9821V181ZM105.302 179.224L118.311 188.224L129.689 171.776L116.681 162.776L105.302 179.224ZM124 170H76.5V190H124V170Z" fill="#039A2B" mask="url(#path-13-inside-2_9_62)"/>
<path d="M88 39V54" stroke="#039A2B" stroke-width="2"/>
<path d="M112 39V54" stroke="#039A2B" stroke-width="2"/>
<mask id="path-17-inside-3_9_62" fill="white">
<path d="M102 22L101.383 21.3829C101.138 21.1377 100.805 21 100.459 21C100.162 21 99.8737 21.101 99.6419 21.2864L98.1256 22.4995C97.8335 22.7332 97.882 23.191 98.2166 23.3583C98.3903 23.4451 98.5 23.6227 98.5 23.8168V25.5829C98.5 26.7716 97.8739 27.8723 96.8522 28.4798L82.7245 36.88C81.4406 37.6434 81.3638 39.4742 82.5793 40.3424C83.153 40.7522 83.8959 40.8416 84.5505 40.5798L87.6754 39.3299C88.2201 39.112 88.8014 39 89.3882 39H93.5C93.7761 39 94 38.7761 94 38.5C94 38.2239 94.2239 38 94.5 38H105C105.276 38 105.5 38.2239 105.5 38.5C105.5 38.7761 105.724 39 106 39H110.531C111.171 39 111.805 39.1221 112.4 39.3598L115.439 40.5757C116.1 40.8401 116.85 40.7497 117.43 40.336C118.648 39.4656 118.582 37.6337 117.305 36.8529L103.624 28.4923C102.615 27.8759 102 26.7791 102 25.597V23.8446C102 23.6334 102.119 23.4403 102.308 23.3459C102.649 23.1757 102.722 22.7221 102.453 22.4531L102 22Z"/>
</mask>
<path d="M101.383 21.3829L107.04 15.726L107.04 15.726L101.383 21.3829ZM102 22L96.3431 27.6569L96.3432 27.6569L102 22ZM102.453 22.4531L108.11 16.7962L108.11 16.7962L102.453 22.4531ZM103.624 28.4923L99.4522 35.3186L99.4522 35.3186L103.624 28.4923ZM117.305 36.8529L121.476 30.0266V30.0266L117.305 36.8529ZM115.439 40.5757L112.468 48.0035L112.468 48.0035L115.439 40.5757ZM87.6754 39.3299L90.6465 46.7577L90.6465 46.7577L87.6754 39.3299ZM84.5505 40.5798L87.5216 48.0076L87.5216 48.0076L84.5505 40.5798ZM82.7245 36.88L78.6359 30.0037L78.6359 30.0037L82.7245 36.88ZM96.8522 28.4798L92.7636 21.6035L92.7636 21.6035L96.8522 28.4798ZM98.1256 22.4995L93.1281 16.2525L93.1281 16.2525L98.1256 22.4995ZM99.6419 21.2864L94.6444 15.0395L94.6444 15.0395L99.6419 21.2864ZM98.2166 23.3583L94.6389 30.5137L94.6389 30.5137L98.2166 23.3583ZM82.5793 40.3424L77.9294 46.8522L77.9294 46.8522L82.5793 40.3424ZM117.43 40.336L122.08 46.8458L122.08 46.8458L117.43 40.336ZM102.308 23.3459L105.886 30.5013L105.886 30.5013L102.308 23.3459ZM95.726 27.0397L96.3431 27.6569L107.657 16.3431L107.04 15.726L95.726 27.0397ZM96.3432 27.6569L96.7962 28.1099L108.11 16.7962L107.657 16.3431L96.3432 27.6569ZM94 23.8446V25.597H110V23.8446H94ZM99.4522 35.3186L113.133 43.6792L121.476 30.0266L107.795 21.666L99.4522 35.3186ZM118.41 33.1479L115.371 31.932L109.428 46.7877L112.468 48.0035L118.41 33.1479ZM110.531 31H106V47H110.531V31ZM105 30H94.5V46H105V30ZM93.5 31H89.3882V47H93.5V31ZM84.7042 31.902L81.5794 33.152L87.5216 48.0076L90.6465 46.7577L84.7042 31.902ZM86.8131 43.7563L100.941 35.3561L92.7636 21.6035L78.6359 30.0037L86.8131 43.7563ZM106.5 25.5829V23.8168H90.5V25.5829H106.5ZM103.123 28.7464L104.64 27.5334L94.6444 15.0395L93.1281 16.2525L103.123 28.7464ZM101.794 16.2029C106.682 18.6466 107.39 25.333 103.123 28.7464L93.1281 16.2525C88.277 20.1334 89.0824 27.7354 94.6389 30.5137L101.794 16.2029ZM106.5 23.8168C106.5 20.5925 104.678 17.6449 101.794 16.2029L94.6389 30.5137C92.1023 29.2454 90.5 26.6528 90.5 23.8168H106.5ZM100.941 35.3561C104.388 33.3066 106.5 29.593 106.5 25.5829H90.5C90.5 23.9501 91.3601 22.438 92.7636 21.6035L100.941 35.3561ZM87.2292 33.8325C90.7131 36.321 90.4931 41.5682 86.8131 43.7563L78.6359 30.0037C72.3881 33.7187 72.0145 42.6273 77.9294 46.8522L87.2292 33.8325ZM81.5794 33.152C83.4556 32.4015 85.5848 32.658 87.2292 33.8325L77.9294 46.8522C80.7212 48.8464 84.3362 49.2818 87.5216 48.0076L81.5794 33.152ZM89.3882 31C87.7837 31 86.1939 31.3062 84.7042 31.902L90.6465 46.7577C90.2463 46.9178 89.8192 47 89.3882 47V31ZM86 38.5C86 34.3579 89.3579 31 93.5 31V47C98.1944 47 102 43.1944 102 38.5H86ZM113.5 38.5C113.5 33.8056 109.694 30 105 30V46C100.858 46 97.5 42.6421 97.5 38.5H113.5ZM106 31C110.142 31 113.5 34.3579 113.5 38.5H97.5C97.5 43.1944 101.306 47 106 47V31ZM115.371 31.932C113.831 31.3163 112.189 31 110.531 31V47C110.153 47 109.779 46.9279 109.428 46.7877L115.371 31.932ZM112.78 33.8261C114.419 32.6555 116.541 32.3999 118.41 33.1479L112.468 48.0035C115.66 49.2802 119.282 48.8439 122.08 46.8458L112.78 33.8261ZM113.133 43.6792C109.519 41.4703 109.333 36.2882 112.78 33.8261L122.08 46.8458C127.963 42.643 127.646 33.7971 121.476 30.0266L113.133 43.6792ZM98.7305 16.1905C95.8313 17.6401 94 20.6032 94 23.8446H110C110 26.6636 108.407 29.2406 105.886 30.5013L98.7305 16.1905ZM96.7962 28.1099C93.2041 24.5178 94.1869 18.4623 98.7305 16.1905L105.886 30.5013C111.11 27.8892 112.24 20.9264 108.11 16.7962L96.7962 28.1099ZM100.459 29C98.6835 29 96.9812 28.2949 95.726 27.0397L107.04 15.726C105.294 13.9806 102.927 13 100.459 13V29ZM94 25.597C94 29.566 96.0655 33.2489 99.4522 35.3186L107.795 21.666C109.165 22.5029 110 23.9921 110 25.597H94ZM94.5 30C89.8056 30 86 33.8056 86 38.5H102C102 42.6421 98.6421 46 94.5 46V30ZM100.459 13C98.3451 13 96.2947 13.7193 94.6444 15.0395L104.639 27.5334C103.453 28.4828 101.978 29 100.459 29V13Z" fill="#039A2B" mask="url(#path-17-inside-3_9_62)"/>
<path d="M86.5 59.5V58.8885C87.6384 58.6302 88.6128 57.9403 89.2422 57H93.25C94.5485 57 95.7109 56.4177 96.4905 55.5H97H104.51C105.289 56.4177 106.452 57 107.75 57H111.258C111.793 57.7994 112.577 58.4179 113.5 58.7439V59.5C113.5 59.7761 113.276 60 113 60H87C86.7239 60 86.5 59.7761 86.5 59.5Z" stroke="#039A2B" stroke-width="7"/>
<path d="M84 40V55.5" stroke="#039A2B"/>
<path d="M116 40V55.5" stroke="#039A2B"/>
<path d="M96.086 112.181L95.1825 111.856H94.2222H82.6667H82.0455L81.9838 111.87L82.5951 102.778L85.5745 101.5H98.5854L118.5 112.47V120.254L96.086 112.181Z" stroke="#039A2B" stroke-width="11"/>
</g>
<defs>
<filter id="filter0_i_9_62" x="0" y="0" width="200" height="204" filterUnits="userSpaceOnUse" color-interpolation-filters="sRGB">
<feFlood flood-opacity="0" result="BackgroundImageFix"/>
<feBlend mode="normal" in="SourceGraphic" in2="BackgroundImageFix" result="shape"/>
<feColorMatrix in="SourceAlpha" type="matrix" values="0 0 0 0 0 0 0 0 0 0 0 0 0 0 0 0 0 0 127 0" result="hardAlpha"/>
<feOffset dy="4"/>
<feGaussianBlur stdDeviation="2"/>
<feComposite in2="hardAlpha" operator="arithmetic" k2="-1" k3="1"/>
<feColorMatrix type="matrix" values="0 0 0 0 0 0 0 0 0 0 0 0 0 0 0 0 0 0 0.25 0"/>
<feBlend mode="normal" in2="shape" result="effect1_innerShadow_9_62"/>
</filter>
<filter id="filter1_i_9_62" x="67" y="21" width="66.5" height="163" filterUnits="userSpaceOnUse" color-interpolation-filters="sRGB">
<feFlood flood-opacity="0" result="BackgroundImageFix"/>
<feBlend mode="normal" in="SourceGraphic" in2="BackgroundImageFix" result="shape"/>
<feColorMatrix in="SourceAlpha" type="matrix" values="0 0 0 0 0 0 0 0 0 0 0 0 0 0 0 0 0 0 127 0" result="hardAlpha"/>
<feOffset dy="4"/>
<feGaussianBlur stdDeviation="2"/>
<feComposite in2="hardAlpha" operator="arithmetic" k2="-1" k3="1"/>
<feColorMatrix type="matrix" values="0 0 0 0 0 0 0 0 0 0 0 0 0 0 0 0 0 0 0.25 0"/>
<feBlend mode="normal" in2="shape" result="effect1_innerShadow_9_62"/>
</filter>
</defs>
</svg>
