<svg width="67" height="159" viewBox="0 0 67 159" fill="none" xmlns="http://www.w3.org/2000/svg">
<path d="M40.2894 136L43.7458 138.634L41.1288 136.937L40.1357 136.293H38.952H28.7048L29.396 136H40.2894Z" stroke="black" stroke-width="8"/>
<path d="M53 118.923V125.059L43.1447 119.348L42.2144 118.809H41.1391H29.8696H29.1088L28.4012 119.088L16.1697 123.915H13V119.349L30.6683 112H41.6823L53 118.923Z" stroke="black" stroke-width="8"/>
<path d="M6.5 35.5H5C3.89543 35.5 3 36.3954 3 37.5V41.5C3 42.3284 3.67157 43 4.5 43H5.5C5.77614 43 6 42.7761 6 42.5C6 42.2239 6.22386 42 6.5 42H8.12132C8.68393 42 9.2235 41.7765 9.62132 41.3787L10.25 40.75C11.0504 39.9496 12.1359 39.5 13.2678 39.5H55.2322C56.3641 39.5 57.4496 39.9496 58.25 40.75L58.7751 41.2751C59.2393 41.7393 59.8687 42 60.5251 42H62.5C62.7761 42 63 42.2239 63 42.5C63 42.7761 63.2239 43 63.5 43H64C64.5523 43 65 42.5523 65 42V37.25C65 36.2835 64.2165 35.5 63.25 35.5H62C61.7239 35.5 61.5 35.2761 61.5 35C61.5 34.7239 61.2761 34.5 61 34.5H60C59.7239 34.5 59.5 34.2761 59.5 34C59.5 33.7239 59.2761 33.5 59 33.5H57.75C57.3358 33.5 57 33.1642 57 32.75C57 32.3358 56.6642 32 56.25 32H12.25C11.8358 32 11.5 32.3358 11.5 32.75C11.5 33.1642 11.1642 33.5 10.75 33.5H9.5C9.22386 33.5 9 33.7239 9 34C9 34.2761 8.77614 34.5 8.5 34.5H7.5C7.22386 34.5 7 34.7239 7 35C7 35.2761 6.77614 35.5 6.5 35.5Z" stroke="black"/>
<path d="M3 45V36" stroke="black" stroke-width="2"/>
<path d="M64 45V36" stroke="black" stroke-width="2"/>
<path d="M10 43V34" stroke="black"/>
<path d="M57 43V34" stroke="black"/>
<path d="M18.5 48H50V54V62.9695L42.9806 59.6663L41.5648 59H40H21.5H20.1L18.8077 59.5385L16.5 60.5V54V51.1005L14.8995 49.5H18.5V48Z" stroke="black" stroke-width="14"/>
<path d="M33 16.5V22.5" stroke="black" stroke-width="2"/>
<mask id="path-10-inside-1_8_41" fill="white">
<path d="M35 29V23C35 21.8954 34.1046 21 33 21C31.8954 21 31 21.8954 31 23V29C31 30.1046 31.8954 31 33 31C34.1046 31 35 30.1046 35 29Z"/>
</mask>
<path d="M27 23V29H43V23H27ZM39 29V23H23V29H39ZM33 23C36.3137 23 39 25.6863 39 29H23C23 34.5228 27.4772 39 33 39V23ZM27 29C27 25.6863 29.6863 23 33 23V39C38.5228 39 43 34.5228 43 29H27ZM33 29C29.6863 29 27 26.3137 27 23H43C43 17.4772 38.5228 13 33 13V29ZM33 13C27.4772 13 23 17.4772 23 23H39C39 26.3137 36.3137 29 33 29V13Z" fill="black" mask="url(#path-10-inside-1_8_41)"/>
<mask id="path-12-inside-2_8_41" fill="white">
<path d="M30.9821 150L9.5 159H57L43.9911 150H30.9821Z"/>
</mask>
<path d="M9.5 159L5.63589 149.777L9.5 169V159ZM30.9821 150V140H28.972L27.118 140.777L30.9821 150ZM43.9911 150L49.6805 141.776L47.1131 140H43.9911V150ZM57 159V169H89.0307L62.6895 150.776L57 159ZM13.3641 168.223L34.8463 159.223L27.118 140.777L5.63589 149.777L13.3641 168.223ZM30.9821 160H43.9911V140H30.9821V160ZM38.3016 158.224L51.3105 167.224L62.6895 150.776L49.6805 141.776L38.3016 158.224ZM57 149H9.5V169H57V149Z" fill="black" mask="url(#path-12-inside-2_8_41)"/>
<path d="M21 18V33" stroke="black" stroke-width="2"/>
<path d="M45 18V33" stroke="black" stroke-width="2"/>
<mask id="path-16-inside-3_8_41" fill="white">
<path d="M35 1L34.3829 0.38287C34.1377 0.137722 33.8052 0 33.4585 0C33.1617 0 32.8737 0.101021 32.6419 0.286448L31.1256 1.49949C30.8335 1.7332 30.882 2.191 31.2166 2.35831C31.3903 2.44515 31.5 2.62265 31.5 2.81683V4.58292C31.5 5.77155 30.8739 6.87229 29.8522 7.47977L15.7245 15.88C14.4406 16.6434 14.3638 18.4742 15.5793 19.3424C16.153 19.7522 16.8959 19.8416 17.5505 19.5798L20.6754 18.3299C21.2201 18.112 21.8014 18 22.3882 18H26.5C26.7761 18 27 17.7761 27 17.5C27 17.2239 27.2239 17 27.5 17H38C38.2761 17 38.5 17.2239 38.5 17.5C38.5 17.7761 38.7239 18 39 18H43.5311C44.1712 18 44.8053 18.1221 45.3996 18.3598L48.4392 19.5757C49.1002 19.8401 49.8504 19.7497 50.4297 19.336C51.6482 18.4656 51.5825 16.6337 50.3047 15.8529L36.6238 7.4923C35.6152 6.87593 35 5.77908 35 4.59704V2.84455C35 2.63339 35.1193 2.44035 35.3082 2.34591C35.6485 2.17574 35.7221 1.72214 35.4531 1.45306L35 1Z"/>
</mask>
<path d="M34.3829 0.38287L40.0397 -5.27398L40.0397 -5.27399L34.3829 0.38287ZM35 1L29.3431 6.65685L29.3432 6.65686L35 1ZM35.4531 1.45306L41.1099 -4.20378L41.1099 -4.2038L35.4531 1.45306ZM36.6238 7.4923L32.4522 14.3186L32.4522 14.3186L36.6238 7.4923ZM50.3047 15.8529L54.4763 9.02665L54.4763 9.02664L50.3047 15.8529ZM48.4392 19.5757L45.4681 27.0035L45.4681 27.0035L48.4392 19.5757ZM20.6754 18.3299L23.6465 25.7577L23.6465 25.7577L20.6754 18.3299ZM17.5505 19.5798L20.5216 27.0076L20.5216 27.0076L17.5505 19.5798ZM15.7245 15.88L11.6359 9.00374L11.6359 9.00374L15.7245 15.88ZM29.8522 7.47977L25.7636 0.60348L25.7636 0.603482L29.8522 7.47977ZM31.1256 1.49949L26.1281 -4.74746L26.1281 -4.74746L31.1256 1.49949ZM32.6419 0.286448L27.6444 -5.96052L27.6444 -5.9605L32.6419 0.286448ZM31.2166 2.35831L27.6389 9.51373L27.6389 9.51373L31.2166 2.35831ZM15.5793 19.3424L10.9294 25.8522L10.9294 25.8522L15.5793 19.3424ZM50.4297 19.336L55.0796 25.8458L55.0796 25.8458L50.4297 19.336ZM35.3082 2.34591L38.8859 9.50134L38.8859 9.50133L35.3082 2.34591ZM28.726 6.03972L29.3431 6.65685L40.6569 -4.65685L40.0397 -5.27398L28.726 6.03972ZM29.3432 6.65686L29.7962 7.10993L41.1099 -4.2038L40.6568 -4.65686L29.3432 6.65686ZM27 2.84455V4.59704H43V2.84455H27ZM32.4522 14.3186L46.1331 22.6792L54.4763 9.02664L40.7954 0.666043L32.4522 14.3186ZM51.4104 12.1479L48.3707 10.932L42.4285 25.7877L45.4681 27.0035L51.4104 12.1479ZM43.5311 10H39V26H43.5311V10ZM38 9H27.5V25H38V9ZM26.5 10H22.3882V26H26.5V10ZM17.7042 10.902L14.5794 12.152L20.5216 27.0076L23.6465 25.7577L17.7042 10.902ZM19.8131 22.7563L33.9408 14.3561L25.7636 0.603482L11.6359 9.00374L19.8131 22.7563ZM39.5 4.58292V2.81683H23.5V4.58292H39.5ZM36.1232 7.74644L37.6395 6.5334L27.6444 -5.9605L26.1281 -4.74746L36.1232 7.74644ZM34.7943 -4.79711C39.6816 -2.35344 40.39 4.33296 36.1232 7.74644L26.1281 -4.74746C21.277 -0.866563 22.0824 6.73544 27.6389 9.51373L34.7943 -4.79711ZM39.5 2.81683C39.5 -0.407501 37.6783 -3.35512 34.7943 -4.79711L27.6389 9.51373C25.1023 8.24542 23.5 5.65281 23.5 2.81683H39.5ZM33.9408 14.3561C37.3876 12.3066 39.5 8.59301 39.5 4.58292H23.5C23.5 2.95009 24.3601 1.43799 25.7636 0.60348L33.9408 14.3561ZM20.2292 12.8325C23.7131 15.321 23.4931 20.5682 19.8131 22.7563L11.6359 9.00374C5.3881 12.7187 5.01454 21.6273 10.9294 25.8522L20.2292 12.8325ZM14.5794 12.152C16.4556 11.4015 18.5848 11.658 20.2292 12.8325L10.9294 25.8522C13.7212 27.8464 17.3362 28.2818 20.5216 27.0076L14.5794 12.152ZM22.3882 10C20.7837 10 19.1939 10.3062 17.7042 10.902L23.6465 25.7577C23.2463 25.9178 22.8192 26 22.3882 26V10ZM19 17.5C19 13.3579 22.3579 10 26.5 10V26C31.1944 26 35 22.1944 35 17.5H19ZM46.5 17.5C46.5 12.8056 42.6944 9 38 9V25C33.8579 25 30.5 21.6421 30.5 17.5H46.5ZM39 10C43.1421 10 46.5 13.3579 46.5 17.5H30.5C30.5 22.1944 34.3056 26 39 26V10ZM48.3707 10.932C46.8315 10.3163 45.1889 10 43.5311 10V26C43.1534 26 42.7792 25.9279 42.4285 25.7877L48.3707 10.932ZM45.7798 12.8261C47.4185 11.6555 49.5405 11.3999 51.4104 12.1479L45.4681 27.0035C48.6599 28.2802 52.2822 27.8439 55.0796 25.8458L45.7798 12.8261ZM46.1331 22.6792C42.5187 20.4703 42.3328 15.2882 45.7798 12.8261L55.0796 25.8458C60.9635 21.643 60.6462 12.7971 54.4763 9.02665L46.1331 22.6792ZM31.7305 -4.80951C28.8313 -3.35994 27 -0.396779 27 2.84455H43C43 5.66355 41.4073 8.24063 38.8859 9.50134L31.7305 -4.80951ZM29.7962 7.10991C26.2041 3.51784 27.1869 -2.53769 31.7305 -4.8095L38.8859 9.50133C44.1102 6.88917 45.2401 -0.0735706 41.1099 -4.20378L29.7962 7.10991ZM33.4585 8C31.6835 8 29.9812 7.29487 28.726 6.03973L40.0397 -5.27399C38.2943 -7.01942 35.927 -8 33.4585 -8V8ZM27 4.59704C27 8.56601 29.0655 12.2489 32.4522 14.3186L40.7954 0.666045C42.1648 1.50292 43 2.99215 43 4.59704H27ZM27.5 9C22.8056 9 19 12.8056 19 17.5H35C35 21.6421 31.6421 25 27.5 25V9ZM33.4585 -8C31.3451 -8 29.2947 -7.28073 27.6444 -5.96052L37.6395 6.53341C36.4528 7.48277 34.9783 8 33.4585 8V-8Z" fill="black" mask="url(#path-16-inside-3_8_41)"/>
<path d="M19.5 38.5V37.8885C20.6384 37.6302 21.6128 36.9403 22.2422 36H26.25C27.5485 36 28.7109 35.4177 29.4905 34.5H30H37.5095C38.2891 35.4177 39.4515 36 40.75 36H44.2578C44.7929 36.7994 45.5774 37.4179 46.5 37.7439V38.5C46.5 38.7761 46.2761 39 46 39H20C19.7239 39 19.5 38.7761 19.5 38.5Z" stroke="black" stroke-width="7"/>
<path d="M17 19V34.5" stroke="black"/>
<path d="M49 19V34.5" stroke="black"/>
<path d="M15.6667 90.8559H15.0455L14.9838 90.87L15.5951 81.7782L18.5745 80.5H31.5854L51.5 91.4699V99.2542L29.086 91.1813L28.1825 90.8559H27.2222H15.6667Z" stroke="black" stroke-width="11"/>
</svg>
